<svg xmlns="http://www.w3.org/2000/svg" viewBox="0 0 736.48 700.51">
    <defs>
        <style>.cls-1{fill:#8097bc;stroke:#5c6c8a;stroke-width:5px;}.cls-1,.cls-2{stroke-miterlimit:10;}.cls-2{fill:none;stroke:#000;stroke-width:14px;}</style>
    </defs>
    <title>Asset 3</title>
    <g id="Layer_2" data-name="Layer 2">
        <g id="Nodes">
            <rect class="cls-1" x="27.62" y="183.76" width="67" height="337" rx="33.5" ry="33.5" />
            <rect class="cls-1" x="129.62" y="183.76" width="67" height="337" rx="33.5" ry="33.5" />
            <rect class="cls-1" x="231.62" y="183.76" width="67" height="337" rx="33.5" ry="33.5" />
            <rect class="cls-1" x="333.62" y="183.76" width="67" height="337" rx="33.5" ry="33.5" />
            <rect class="cls-1" x="435.62" y="183.76" width="67" height="337" rx="33.5" ry="33.5" />
            <rect class="cls-1" x="537.62" y="183.76" width="67" height="337" rx="33.5" ry="33.5" />
            <rect class="cls-1" x="639.62" y="183.76" width="67" height="337" rx="33.5" ry="33.5" />
            <path class="cls-2" d="M162.62,521.76c0,28.17-22.61,51-50.5,51s-50.5-22.83-50.5-51" />
            <path class="cls-2" d="M163.62,183.76c0-28.16,22.61-51,50.5-51s50.5,22.84,50.5,51" />
            <path class="cls-2" d="M365.62,520.76c0,28.17-22.61,51-50.5,51s-50.5-22.83-50.5-51" />
            <path class="cls-2" d="M366.62,182.76c0-28.16,22.61-51,50.5-51s50.5,22.84,50.5,51" />
            <path class="cls-2" d="M570.62,520.76c0,28.17-22.61,51-50.5,51s-50.5-22.83-50.5-51" />
            <path class="cls-2" d="M571.62,182.76c0-28.16,22.61-51,50.5-51s50.5,22.84,50.5,51" />
        </g>
        <g id="Curve_Lines" data-name="Curve Lines">
            <path class="cls-2" d="M672.62,520.76s-5,17-12,18-15,2-20,17,8,26,19,31,36,0,38,0,16,0,27,16,1,33-7,42-20,12-47,6-144-42-144-42-76-20-113-21-41,3-50,10-21,22-20,35c0,0,0,12,15,24s36,10,36,10l34-3s19-1,28,1,44,7,77,30" />
            <path class="cls-2" d="M60.62,183.76s1-10,7-17,13-8,20-20,2-14-4-22-49-9-66-22-11-36,0-41,19-11,51-8,65,16,74,21,137,40,191,34,57-34,56-44-1-28-29-34-41,3-57,8-51-1-57-4-42-16-55-30" />
        </g>
    </g>
</svg>